<mxfile host="app.diagrams.net" modified="2023-11-03T12:15:52.890Z" agent="Mozilla/5.0 (Macintosh; Intel Mac OS X 10.15; rv:109.0) Gecko/20100101 Firefox/119.0" etag="IKjqtVYoR3PxX5eAXcW6" version="22.0.8" type="github">
  <diagram name="Страница — 1" id="I8-dqsJEsdISGRd2qJUW">
    <mxGraphModel dx="1536" dy="985" grid="1" gridSize="10" guides="1" tooltips="1" connect="1" arrows="1" fold="1" page="1" pageScale="1" pageWidth="1169" pageHeight="827" math="0" shadow="0">
      <root>
        <mxCell id="0" />
        <mxCell id="1" parent="0" />
        <mxCell id="csLnaCdaRgQzuf7RutU_-20" value="" style="rounded=1;whiteSpace=wrap;html=1;arcSize=6;" vertex="1" parent="1">
          <mxGeometry x="163" y="40" width="540" height="570" as="geometry" />
        </mxCell>
        <mxCell id="csLnaCdaRgQzuf7RutU_-29" style="rounded=0;orthogonalLoop=1;jettySize=auto;html=1;strokeWidth=2;" edge="1" parent="1">
          <mxGeometry relative="1" as="geometry">
            <mxPoint x="591" y="166" as="sourcePoint" />
            <mxPoint x="793" y="320" as="targetPoint" />
          </mxGeometry>
        </mxCell>
        <mxCell id="csLnaCdaRgQzuf7RutU_-32" style="rounded=0;orthogonalLoop=1;jettySize=auto;html=1;strokeWidth=2;" edge="1" parent="1">
          <mxGeometry relative="1" as="geometry">
            <mxPoint x="478" y="236" as="sourcePoint" />
            <mxPoint x="573" y="310" as="targetPoint" />
          </mxGeometry>
        </mxCell>
        <mxCell id="csLnaCdaRgQzuf7RutU_-35" style="edgeStyle=orthogonalEdgeStyle;rounded=0;orthogonalLoop=1;jettySize=auto;html=1;strokeWidth=2;startArrow=classic;startFill=1;endArrow=none;endFill=0;" edge="1" parent="1">
          <mxGeometry relative="1" as="geometry">
            <mxPoint x="129" y="172.76923076923072" as="targetPoint" />
            <mxPoint x="280" y="173" as="sourcePoint" />
          </mxGeometry>
        </mxCell>
        <mxCell id="csLnaCdaRgQzuf7RutU_-9" value="" style="rounded=1;whiteSpace=wrap;html=1;" vertex="1" parent="1">
          <mxGeometry x="301.25" y="107" width="283.5" height="113" as="geometry" />
        </mxCell>
        <mxCell id="csLnaCdaRgQzuf7RutU_-1" value="&lt;font style=&quot;font-size: 16px;&quot;&gt;Users&lt;/font&gt;" style="sketch=0;pointerEvents=1;shadow=0;dashed=0;html=1;strokeColor=none;fillColor=#505050;labelPosition=center;verticalLabelPosition=bottom;verticalAlign=top;outlineConnect=0;align=center;shape=mxgraph.office.users.users;" vertex="1" parent="1">
          <mxGeometry x="42" y="149.5" width="64" height="55" as="geometry" />
        </mxCell>
        <mxCell id="csLnaCdaRgQzuf7RutU_-2" value="&lt;div style=&quot;font-size: 16px;&quot;&gt;&lt;font style=&quot;font-size: 16px;&quot;&gt;Admin&lt;/font&gt;&lt;/div&gt;" style="sketch=0;pointerEvents=1;shadow=0;dashed=0;html=1;strokeColor=none;fillColor=#505050;labelPosition=center;verticalLabelPosition=bottom;verticalAlign=top;outlineConnect=0;align=center;shape=mxgraph.office.users.administrator;" vertex="1" parent="1">
          <mxGeometry x="48" y="314" width="58" height="56" as="geometry" />
        </mxCell>
        <mxCell id="csLnaCdaRgQzuf7RutU_-3" value="&lt;font style=&quot;font-size: 16px;&quot;&gt;VPN Gateway&lt;/font&gt;" style="sketch=0;outlineConnect=0;fontColor=#232F3E;gradientColor=none;strokeColor=#232F3E;fillColor=#ffffff;dashed=0;verticalLabelPosition=bottom;verticalAlign=top;align=center;html=1;fontSize=12;fontStyle=0;aspect=fixed;shape=mxgraph.aws4.resourceIcon;resIcon=mxgraph.aws4.vpn_gateway;" vertex="1" parent="1">
          <mxGeometry x="205.11" y="319.13" width="60" height="60" as="geometry" />
        </mxCell>
        <mxCell id="csLnaCdaRgQzuf7RutU_-4" value="&lt;font style=&quot;font-size: 16px;&quot;&gt;RDS PostgreSQL&lt;/font&gt;" style="sketch=0;shadow=0;dashed=0;html=1;strokeColor=none;fillColor=#505050;labelPosition=center;verticalLabelPosition=bottom;verticalAlign=top;outlineConnect=0;align=center;shape=mxgraph.office.databases.database_mini_1;" vertex="1" parent="1">
          <mxGeometry x="410" y="322.58" width="61.47" height="47.42" as="geometry" />
        </mxCell>
        <mxCell id="csLnaCdaRgQzuf7RutU_-5" value="&lt;font style=&quot;font-size: 16px;&quot;&gt;Admin Service&lt;/font&gt;" style="sketch=0;pointerEvents=1;shadow=0;dashed=0;html=1;strokeColor=none;fillColor=#505050;labelPosition=center;verticalLabelPosition=bottom;verticalAlign=top;outlineConnect=0;align=center;shape=mxgraph.office.concepts.service_application;" vertex="1" parent="1">
          <mxGeometry x="417.5" y="503.27" width="55" height="44.75" as="geometry" />
        </mxCell>
        <mxCell id="csLnaCdaRgQzuf7RutU_-6" value="&lt;font style=&quot;font-size: 16px;&quot;&gt;Wallet Service&lt;/font&gt;" style="sketch=0;pointerEvents=1;shadow=0;dashed=0;html=1;strokeColor=none;fillColor=#505050;labelPosition=center;verticalLabelPosition=bottom;verticalAlign=top;outlineConnect=0;align=center;shape=mxgraph.office.concepts.service_application;" vertex="1" parent="1">
          <mxGeometry x="600" y="325.94" width="52" height="42.31" as="geometry" />
        </mxCell>
        <mxCell id="csLnaCdaRgQzuf7RutU_-7" value="&lt;font style=&quot;font-size: 16px;&quot;&gt;app.roobee.io&lt;/font&gt;" style="sketch=0;pointerEvents=1;shadow=0;dashed=0;html=1;strokeColor=none;fillColor=#505050;labelPosition=center;verticalLabelPosition=bottom;verticalAlign=top;outlineConnect=0;align=center;shape=mxgraph.office.concepts.application_generic;" vertex="1" parent="1">
          <mxGeometry x="360" y="150.28" width="46" height="34.72" as="geometry" />
        </mxCell>
        <mxCell id="csLnaCdaRgQzuf7RutU_-8" value="&lt;font style=&quot;font-size: 16px;&quot;&gt;NodeBot&lt;/font&gt;" style="sketch=0;pointerEvents=1;shadow=0;dashed=0;html=1;strokeColor=none;fillColor=#505050;labelPosition=center;verticalLabelPosition=bottom;verticalAlign=top;outlineConnect=0;align=center;shape=mxgraph.office.concepts.application_generic;" vertex="1" parent="1">
          <mxGeometry x="480" y="148.96" width="47.75" height="36.04" as="geometry" />
        </mxCell>
        <mxCell id="csLnaCdaRgQzuf7RutU_-10" value="&lt;font style=&quot;font-size: 18px;&quot;&gt;Applications&lt;/font&gt;" style="text;html=1;strokeColor=none;fillColor=none;align=center;verticalAlign=middle;whiteSpace=wrap;rounded=0;" vertex="1" parent="1">
          <mxGeometry x="414.75" y="107" width="60" height="30" as="geometry" />
        </mxCell>
        <mxCell id="csLnaCdaRgQzuf7RutU_-11" value="&lt;div style=&quot;font-size: 16px;&quot;&gt;&lt;font style=&quot;font-size: 16px;&quot;&gt;S3 Backup&lt;/font&gt;&lt;/div&gt;&lt;div style=&quot;font-size: 16px;&quot;&gt;&lt;font style=&quot;font-size: 16px;&quot;&gt;Storage&lt;/font&gt;&lt;/div&gt;" style="sketch=0;pointerEvents=1;shadow=0;dashed=0;html=1;strokeColor=none;fillColor=#505050;labelPosition=center;verticalLabelPosition=bottom;verticalAlign=top;outlineConnect=0;align=center;shape=mxgraph.office.servers.server_generic;" vertex="1" parent="1">
          <mxGeometry x="220" y="496.55" width="30.22" height="58.2" as="geometry" />
        </mxCell>
        <mxCell id="csLnaCdaRgQzuf7RutU_-12" value="" style="rounded=1;whiteSpace=wrap;html=1;" vertex="1" parent="1">
          <mxGeometry x="803" y="269.25" width="110" height="541.75" as="geometry" />
        </mxCell>
        <mxCell id="csLnaCdaRgQzuf7RutU_-13" value="&lt;font style=&quot;font-size: 18px;&quot;&gt;Blockchain Services&lt;/font&gt;" style="text;html=1;strokeColor=none;fillColor=none;align=center;verticalAlign=middle;whiteSpace=wrap;rounded=0;" vertex="1" parent="1">
          <mxGeometry x="808.5" y="281" width="105" height="40" as="geometry" />
        </mxCell>
        <mxCell id="csLnaCdaRgQzuf7RutU_-15" value="&lt;font style=&quot;font-size: 16px;&quot;&gt;BitGo&lt;/font&gt;" style="sketch=0;pointerEvents=1;shadow=0;dashed=0;html=1;strokeColor=none;fillColor=#505050;labelPosition=center;verticalLabelPosition=bottom;verticalAlign=top;outlineConnect=0;align=center;shape=mxgraph.office.concepts.node_generic;" vertex="1" parent="1">
          <mxGeometry x="834" y="341" width="46" height="52" as="geometry" />
        </mxCell>
        <mxCell id="csLnaCdaRgQzuf7RutU_-16" value="&lt;font style=&quot;font-size: 16px;&quot;&gt;Infura&lt;/font&gt;" style="sketch=0;pointerEvents=1;shadow=0;dashed=0;html=1;strokeColor=none;fillColor=#505050;labelPosition=center;verticalLabelPosition=bottom;verticalAlign=top;outlineConnect=0;align=center;shape=mxgraph.office.concepts.node_generic;" vertex="1" parent="1">
          <mxGeometry x="834" y="431" width="46" height="52" as="geometry" />
        </mxCell>
        <mxCell id="csLnaCdaRgQzuf7RutU_-17" value="&lt;font style=&quot;font-size: 16px;&quot;&gt;BSC Node&lt;/font&gt;" style="sketch=0;pointerEvents=1;shadow=0;dashed=0;html=1;strokeColor=none;fillColor=#505050;labelPosition=center;verticalLabelPosition=bottom;verticalAlign=top;outlineConnect=0;align=center;shape=mxgraph.office.concepts.node_generic;" vertex="1" parent="1">
          <mxGeometry x="834" y="614.5" width="46" height="52" as="geometry" />
        </mxCell>
        <mxCell id="csLnaCdaRgQzuf7RutU_-18" value="&lt;font style=&quot;font-size: 16px;&quot;&gt;Celo Node&lt;/font&gt;" style="sketch=0;pointerEvents=1;shadow=0;dashed=0;html=1;strokeColor=none;fillColor=#505050;labelPosition=center;verticalLabelPosition=bottom;verticalAlign=top;outlineConnect=0;align=center;shape=mxgraph.office.concepts.node_generic;" vertex="1" parent="1">
          <mxGeometry x="834" y="711" width="46" height="52" as="geometry" />
        </mxCell>
        <mxCell id="csLnaCdaRgQzuf7RutU_-19" value="&lt;font style=&quot;font-size: 16px;&quot;&gt;Ethercan&lt;/font&gt;" style="sketch=0;pointerEvents=1;shadow=0;dashed=0;html=1;strokeColor=none;fillColor=#505050;labelPosition=center;verticalLabelPosition=bottom;verticalAlign=top;outlineConnect=0;align=center;shape=mxgraph.office.concepts.node_generic;" vertex="1" parent="1">
          <mxGeometry x="834" y="521" width="46" height="52" as="geometry" />
        </mxCell>
        <mxCell id="csLnaCdaRgQzuf7RutU_-21" value="&lt;font style=&quot;font-size: 24px;&quot;&gt;AWS&lt;/font&gt;" style="text;html=1;strokeColor=none;fillColor=none;align=center;verticalAlign=middle;whiteSpace=wrap;rounded=0;" vertex="1" parent="1">
          <mxGeometry x="393" y="48.25" width="100" height="41.75" as="geometry" />
        </mxCell>
        <mxCell id="csLnaCdaRgQzuf7RutU_-23" value="" style="rounded=1;whiteSpace=wrap;html=1;" vertex="1" parent="1">
          <mxGeometry x="1021" y="304.25" width="110" height="471.75" as="geometry" />
        </mxCell>
        <mxCell id="csLnaCdaRgQzuf7RutU_-24" value="&lt;font style=&quot;font-size: 18px;&quot;&gt;Blockchains&lt;br&gt;&lt;/font&gt;" style="text;html=1;strokeColor=none;fillColor=none;align=center;verticalAlign=middle;whiteSpace=wrap;rounded=0;" vertex="1" parent="1">
          <mxGeometry x="1023.5" y="316" width="105" height="40" as="geometry" />
        </mxCell>
        <mxCell id="csLnaCdaRgQzuf7RutU_-25" value="&lt;font style=&quot;font-size: 16px;&quot;&gt;Bitcoin&lt;/font&gt;" style="sketch=0;pointerEvents=1;shadow=0;dashed=0;html=1;strokeColor=none;fillColor=#505050;labelPosition=center;verticalLabelPosition=bottom;verticalAlign=top;outlineConnect=0;align=center;shape=mxgraph.office.concepts.node_generic;" vertex="1" parent="1">
          <mxGeometry x="1053" y="376" width="46" height="52" as="geometry" />
        </mxCell>
        <mxCell id="csLnaCdaRgQzuf7RutU_-26" value="&lt;font style=&quot;font-size: 16px;&quot;&gt;Ethereum&lt;/font&gt;" style="sketch=0;pointerEvents=1;shadow=0;dashed=0;html=1;strokeColor=none;fillColor=#505050;labelPosition=center;verticalLabelPosition=bottom;verticalAlign=top;outlineConnect=0;align=center;shape=mxgraph.office.concepts.node_generic;" vertex="1" parent="1">
          <mxGeometry x="1053" y="466" width="46" height="52" as="geometry" />
        </mxCell>
        <mxCell id="csLnaCdaRgQzuf7RutU_-27" value="&lt;div style=&quot;font-size: 16px;&quot;&gt;&lt;font style=&quot;font-size: 16px;&quot;&gt;Binance&lt;/font&gt;&lt;/div&gt;&lt;div style=&quot;font-size: 16px;&quot;&gt;&lt;font style=&quot;font-size: 16px;&quot;&gt;Smart Chain&lt;/font&gt;&lt;/div&gt;" style="sketch=0;pointerEvents=1;shadow=0;dashed=0;html=1;strokeColor=none;fillColor=#505050;labelPosition=center;verticalLabelPosition=bottom;verticalAlign=top;outlineConnect=0;align=center;shape=mxgraph.office.concepts.node_generic;" vertex="1" parent="1">
          <mxGeometry x="1053" y="556" width="46" height="52" as="geometry" />
        </mxCell>
        <mxCell id="csLnaCdaRgQzuf7RutU_-28" value="&lt;font style=&quot;font-size: 16px;&quot;&gt;Celo&lt;/font&gt;" style="sketch=0;pointerEvents=1;shadow=0;dashed=0;html=1;strokeColor=none;fillColor=#505050;labelPosition=center;verticalLabelPosition=bottom;verticalAlign=top;outlineConnect=0;align=center;shape=mxgraph.office.concepts.node_generic;" vertex="1" parent="1">
          <mxGeometry x="1053" y="666" width="46" height="52" as="geometry" />
        </mxCell>
        <mxCell id="csLnaCdaRgQzuf7RutU_-30" style="rounded=0;orthogonalLoop=1;jettySize=auto;html=1;strokeWidth=2;" edge="1" parent="1">
          <mxGeometry relative="1" as="geometry">
            <mxPoint x="665" y="399" as="sourcePoint" />
            <mxPoint x="790" y="520" as="targetPoint" />
          </mxGeometry>
        </mxCell>
        <mxCell id="csLnaCdaRgQzuf7RutU_-31" style="rounded=0;orthogonalLoop=1;jettySize=auto;html=1;strokeWidth=2;endArrow=none;endFill=0;startArrow=classic;startFill=1;" edge="1" parent="1">
          <mxGeometry relative="1" as="geometry">
            <mxPoint x="493" y="342" as="sourcePoint" />
            <mxPoint x="573" y="342" as="targetPoint" />
          </mxGeometry>
        </mxCell>
        <mxCell id="csLnaCdaRgQzuf7RutU_-33" style="rounded=0;orthogonalLoop=1;jettySize=auto;html=1;strokeWidth=2;" edge="1" parent="1">
          <mxGeometry relative="1" as="geometry">
            <mxPoint x="283" y="340" as="sourcePoint" />
            <mxPoint x="383" y="340" as="targetPoint" />
          </mxGeometry>
        </mxCell>
        <mxCell id="csLnaCdaRgQzuf7RutU_-37" style="rounded=0;orthogonalLoop=1;jettySize=auto;html=1;strokeWidth=2;" edge="1" parent="1">
          <mxGeometry relative="1" as="geometry">
            <mxPoint x="284" y="358" as="sourcePoint" />
            <mxPoint x="413" y="490" as="targetPoint" />
          </mxGeometry>
        </mxCell>
        <mxCell id="csLnaCdaRgQzuf7RutU_-38" style="rounded=0;orthogonalLoop=1;jettySize=auto;html=1;strokeWidth=2;" edge="1" parent="1">
          <mxGeometry relative="1" as="geometry">
            <mxPoint x="473" y="490" as="sourcePoint" />
            <mxPoint x="572" y="361" as="targetPoint" />
          </mxGeometry>
        </mxCell>
        <mxCell id="csLnaCdaRgQzuf7RutU_-39" style="rounded=0;orthogonalLoop=1;jettySize=auto;html=1;strokeWidth=2;" edge="1" parent="1">
          <mxGeometry relative="1" as="geometry">
            <mxPoint x="929" y="532" as="sourcePoint" />
            <mxPoint x="1011" y="532.48" as="targetPoint" />
          </mxGeometry>
        </mxCell>
        <mxCell id="csLnaCdaRgQzuf7RutU_-40" style="rounded=0;orthogonalLoop=1;jettySize=auto;html=1;strokeWidth=2;" edge="1" parent="1">
          <mxGeometry relative="1" as="geometry">
            <mxPoint x="442.7" y="228.5" as="sourcePoint" />
            <mxPoint x="442.7" y="303.5" as="targetPoint" />
          </mxGeometry>
        </mxCell>
        <mxCell id="csLnaCdaRgQzuf7RutU_-41" style="rounded=0;orthogonalLoop=1;jettySize=auto;html=1;strokeWidth=2;endArrow=none;endFill=0;startArrow=classic;startFill=1;entryX=0.444;entryY=0.798;entryDx=0;entryDy=0;entryPerimeter=0;" edge="1" parent="1">
          <mxGeometry relative="1" as="geometry">
            <mxPoint x="265.11" y="525.48" as="sourcePoint" />
            <mxPoint x="398.87" y="525.34" as="targetPoint" />
            <Array as="points">
              <mxPoint x="336.11" y="525.48" />
            </Array>
          </mxGeometry>
        </mxCell>
        <mxCell id="csLnaCdaRgQzuf7RutU_-42" value="&lt;font style=&quot;font-size: 16px;&quot;&gt;Monitoring&lt;/font&gt;" style="sketch=0;pointerEvents=1;shadow=0;dashed=0;html=1;strokeColor=none;fillColor=#505050;labelPosition=center;verticalLabelPosition=bottom;verticalAlign=top;outlineConnect=0;align=center;shape=mxgraph.office.servers.server_generic;" vertex="1" parent="1">
          <mxGeometry x="610.89" y="496.55" width="30.22" height="58.2" as="geometry" />
        </mxCell>
        <mxCell id="csLnaCdaRgQzuf7RutU_-43" style="edgeStyle=orthogonalEdgeStyle;rounded=0;orthogonalLoop=1;jettySize=auto;html=1;strokeWidth=2;startArrow=classic;startFill=1;endArrow=none;endFill=0;" edge="1" parent="1">
          <mxGeometry relative="1" as="geometry">
            <mxPoint x="120" y="348.59923076923076" as="targetPoint" />
            <mxPoint x="196" y="349" as="sourcePoint" />
          </mxGeometry>
        </mxCell>
        <mxCell id="csLnaCdaRgQzuf7RutU_-44" value="" style="rounded=1;whiteSpace=wrap;html=1;" vertex="1" parent="1">
          <mxGeometry x="280" y="640" width="330" height="170" as="geometry" />
        </mxCell>
        <mxCell id="csLnaCdaRgQzuf7RutU_-45" value="&lt;font style=&quot;font-size: 24px;&quot;&gt;Scaleway&lt;/font&gt;" style="text;html=1;strokeColor=none;fillColor=none;align=center;verticalAlign=middle;whiteSpace=wrap;rounded=0;" vertex="1" parent="1">
          <mxGeometry x="306" y="649.15" width="100" height="41.75" as="geometry" />
        </mxCell>
        <mxCell id="csLnaCdaRgQzuf7RutU_-46" value="&lt;div style=&quot;font-size: 16px;&quot;&gt;&lt;font style=&quot;font-size: 16px;&quot;&gt;S3 Backup&lt;/font&gt;&lt;/div&gt;&lt;div style=&quot;font-size: 16px;&quot;&gt;&lt;font style=&quot;font-size: 16px;&quot;&gt;Storage&lt;/font&gt;&lt;/div&gt;" style="sketch=0;pointerEvents=1;shadow=0;dashed=0;html=1;strokeColor=none;fillColor=#505050;labelPosition=center;verticalLabelPosition=bottom;verticalAlign=top;outlineConnect=0;align=center;shape=mxgraph.office.servers.server_generic;" vertex="1" parent="1">
          <mxGeometry x="427.89" y="690.9" width="30.22" height="58.2" as="geometry" />
        </mxCell>
        <mxCell id="csLnaCdaRgQzuf7RutU_-47" style="rounded=0;orthogonalLoop=1;jettySize=auto;html=1;strokeWidth=2;entryX=0.498;entryY=0.188;entryDx=0;entryDy=0;entryPerimeter=0;" edge="1" parent="1" target="csLnaCdaRgQzuf7RutU_-44">
          <mxGeometry relative="1" as="geometry">
            <mxPoint x="444" y="590" as="sourcePoint" />
            <mxPoint x="445" y="635" as="targetPoint" />
          </mxGeometry>
        </mxCell>
        <mxCell id="csLnaCdaRgQzuf7RutU_-48" style="rounded=0;orthogonalLoop=1;jettySize=auto;html=1;strokeWidth=2;entryX=0.498;entryY=0.188;entryDx=0;entryDy=0;entryPerimeter=0;startArrow=classic;startFill=1;endArrow=none;endFill=0;" edge="1" parent="1">
          <mxGeometry relative="1" as="geometry">
            <mxPoint x="440.43" y="408.5" as="sourcePoint" />
            <mxPoint x="440.43" y="490.5" as="targetPoint" />
          </mxGeometry>
        </mxCell>
        <mxCell id="csLnaCdaRgQzuf7RutU_-49" style="rounded=0;orthogonalLoop=1;jettySize=auto;html=1;strokeWidth=2;" edge="1" parent="1">
          <mxGeometry relative="1" as="geometry">
            <mxPoint x="283" y="319" as="sourcePoint" />
            <mxPoint x="410" y="237" as="targetPoint" />
          </mxGeometry>
        </mxCell>
        <mxCell id="csLnaCdaRgQzuf7RutU_-50" value="" style="rounded=1;whiteSpace=wrap;html=1;" vertex="1" parent="1">
          <mxGeometry x="802" y="10" width="110" height="240" as="geometry" />
        </mxCell>
        <mxCell id="csLnaCdaRgQzuf7RutU_-51" value="Exchanges" style="text;html=1;strokeColor=none;fillColor=none;align=center;verticalAlign=middle;whiteSpace=wrap;rounded=0;fontSize=18;" vertex="1" parent="1">
          <mxGeometry x="802" y="20" width="105" height="40" as="geometry" />
        </mxCell>
        <mxCell id="csLnaCdaRgQzuf7RutU_-52" value="&lt;font style=&quot;font-size: 16px;&quot;&gt;Exante&lt;/font&gt;" style="sketch=0;pointerEvents=1;shadow=0;dashed=0;html=1;strokeColor=none;fillColor=#505050;labelPosition=center;verticalLabelPosition=bottom;verticalAlign=top;outlineConnect=0;align=center;shape=mxgraph.office.concepts.node_generic;" vertex="1" parent="1">
          <mxGeometry x="835" y="62.620000000000005" width="46" height="52" as="geometry" />
        </mxCell>
        <mxCell id="csLnaCdaRgQzuf7RutU_-53" value="&lt;font style=&quot;font-size: 16px;&quot;&gt;CEX&lt;/font&gt;" style="sketch=0;pointerEvents=1;shadow=0;dashed=0;html=1;strokeColor=none;fillColor=#505050;labelPosition=center;verticalLabelPosition=bottom;verticalAlign=top;outlineConnect=0;align=center;shape=mxgraph.office.concepts.node_generic;" vertex="1" parent="1">
          <mxGeometry x="834" y="151" width="46" height="52" as="geometry" />
        </mxCell>
        <mxCell id="csLnaCdaRgQzuf7RutU_-54" style="rounded=0;orthogonalLoop=1;jettySize=auto;html=1;strokeWidth=2;" edge="1" parent="1">
          <mxGeometry relative="1" as="geometry">
            <mxPoint x="592" y="153" as="sourcePoint" />
            <mxPoint x="790" y="130" as="targetPoint" />
          </mxGeometry>
        </mxCell>
      </root>
    </mxGraphModel>
  </diagram>
</mxfile>
